<?xml version="1.0" encoding="UTF-8"?>
<svg width="24px" height="24px" viewBox="0 0 24 24" version="1.1" xmlns="http://www.w3.org/2000/svg" xmlns:xlink="http://www.w3.org/1999/xlink">
    <title>User Icon</title>
    <g id="User" stroke="none" stroke-width="1" fill="none" fill-rule="evenodd">
        <path d="M12,12 C14.7614,12 17,9.76142 17,7 C17,4.23858 14.7614,2 12,2 C9.23858,2 7,4.23858 7,7 C7,9.76142 9.23858,12 12,12 Z M12,10 C10.3431,10 9,8.65685 9,7 C9,5.34315 10.3431,4 12,4 C13.6569,4 15,5.34315 15,7 C15,8.65685 13.6569,10 12,10 Z M4,20 C4,16.1340 7.13401,13 11,13 L13,13 C16.866,13 20,16.1340 20,20 L20,22 L4,22 L4,20 Z M6,20 L18,20 C18,17.2386 15.7614,15 13,15 L11,15 C8.23858,15 6,17.2386 6,20 Z" id="Shape" fill="currentColor" fill-rule="nonzero"></path>
    </g>
</svg> 